<svg width="249" height="224" fill="none" xmlns="http://www.w3.org/2000/svg"><path fill-rule="evenodd" clip-rule="evenodd" d="M109.802 9.83C98.02-3.484 68.991 2.303 59.395 18.854c-9.535 16.551-5.709 23.893-1.761 28 10.385 9.831 24.778 9.52 36.317 6.036 2.065 2.177 5.77 5.226 10.143 3.982-2.673-2.053-2.065-5.289-1.215-7.591 3.887-1.991 6.984-4.17 8.745-6.036 7.167-7.84 9.96-20.098-1.822-33.413z" fill="#88CFED"/><path fill-rule="evenodd" clip-rule="evenodd" d="M78.89 119.03C60.61 102.666 3.28 131.413.184 156.053c-1.336 9.644 4.858 19.475 14.272 27.688-2.369 4.792-6.56 6.16-6.56 6.16 6.074 4.232 11.661 2.178 14.88.187 16.883 11.2 38.686 17.049 49.071 10.205 18.766-12.445 25.325-64.898 7.045-81.263z" fill="#AACF80"/><path fill-rule="evenodd" clip-rule="evenodd" d="M54.112 192.142c-7.895-12.756-41.844 10.764-30.912 21.653 3.705 3.671 8.199 4.729 12.693 4.169 2.854 1.618 7.349 3.733 9.292 4.169-1.397-2.302-1.336-5.04-.911-7.093 9.292-5.351 15.73-16.303 9.838-22.898z" fill="#F8DC83"/><path fill-rule="evenodd" clip-rule="evenodd" d="M69.173 82.569c9.292-13.192 13.786-27.503 7.895-32.107-12.39-9.769-32.734-16.738-51.257.933-18.524 17.671-24.657 50.276 2.672 55.938 10.689 2.178 22.288-4.48 31.823-14.062 3.644 1.99 9.535 4.355 14.333 1.929-3.28-2.551-4.798-8.711-5.466-12.631z" fill="#F18D8E"/><path fill-rule="evenodd" clip-rule="evenodd" d="M44.395 100.986c-9.414-4.667-35.771-2.613-41.54 11.76-1.883 4.667-.122 8.462 3.461 11.324C3.036 128.986 0 129.421 0 129.421c6.438 3.672 11.721-.186 13.3-1.555 7.835 2.924 17.795 3.422 23.139 1.12 10.567-4.605 17.309-23.333 7.956-28z" fill="#ED9AC2"/><path fill-rule="evenodd" clip-rule="evenodd" d="M57.634 46.853c6.316 6.036 14.15 8.213 21.924 8.276-.303-1.991-1.093-3.547-2.49-4.667-6.133-4.853-14.271-9.022-23.138-9.831.79 2.675 2.247 4.666 3.704 6.222z" fill="#C37B87"/><path fill-rule="evenodd" clip-rule="evenodd" d="M44.395 100.986c-5.83-2.924-18.16-3.236-28.058.373 2.915 2.8 6.923 4.854 12.146 5.912 6.134 1.244 12.571-.436 18.766-3.858-.729-.996-1.64-1.867-2.854-2.427z" fill="#E96E97"/><path fill-rule="evenodd" clip-rule="evenodd" d="M20.77 129.795c5.952.996 11.964.747 15.669-.871 4.737-2.053 8.685-6.845 10.75-12.009-9.05 2.738-18.463 7.342-26.419 12.88z" fill="#CC8B90"/><path fill-rule="evenodd" clip-rule="evenodd" d="M30.67 194.756c8.259 4.293 17.004 7.217 24.656 8.151 1.519-3.858 1.397-7.778-1.275-10.765-4.008-6.658-15.122-3.484-23.382 2.614z" fill="#D6CC51"/><path d="M129.411 122.516V76.721h18.523v6.533h-11.539v39.262h-6.984zm21.317-34.782c0-7.343 3.766-11.511 10.689-11.511s10.689 4.168 10.689 11.51v23.832c0 7.342-3.766 11.511-10.689 11.511s-10.689-4.169-10.689-11.511V87.734zM157.773 112c0 3.298 1.397 4.543 3.644 4.543s3.644-1.245 3.644-4.543V87.298c0-3.298-1.397-4.542-3.644-4.542s-3.644 1.244-3.644 4.542V112zm16.397 4.045c3.218 0 4.19-.435 4.312-4.729l1.154-34.595h19.92v45.795h-7.167V83.254h-6.134l-.789 27.689c-.243 8.4-3.219 11.635-10.203 11.635h-1.093v-6.533zm28.788-28.311c0-7.343 3.765-11.511 10.689-11.511 6.923 0 10.689 4.168 10.689 11.51v23.832c0 7.342-3.766 11.511-10.689 11.511-6.924 0-10.689-4.169-10.689-11.511V87.734zM210.003 112c0 3.298 1.397 4.543 3.644 4.543s3.644-1.245 3.644-4.543V87.298c0-3.298-1.397-4.542-3.644-4.542s-3.644 1.244-3.644 4.542V112zm38.199-6.533v6.098c0 7.342-3.583 11.511-10.445 11.511-6.924 0-10.446-4.169-10.446-11.511V87.734c0-7.343 3.583-11.511 10.446-11.511 6.923 0 10.445 4.168 10.445 11.51v4.418h-6.619v-4.915c0-3.298-1.397-4.542-3.644-4.542s-3.644 1.244-3.644 4.542V112c0 3.298 1.397 4.418 3.644 4.418s3.644-1.182 3.644-4.418v-6.533h6.619z" fill="#151617"/><path d="M132.067 136.803h7.062c7.674 0 12.224 4.908 12.224 11.453 0 6.545-4.55 11.112-12.224 11.112h-7.062v-22.565zm0 25.292h8.285c7.062 0 14.125-4.977 14.125-13.839 0-8.863-7.063-14.18-14.125-14.18h-11.001v47.721h2.716v-19.702zm49.427 12.817c11.205 0 19.898-6.545 19.898-18.884 0-12.34-8.693-18.885-19.898-18.885v-6.135h-2.716v6.135c-11.205 0-19.898 6.545-19.898 18.885 0 12.339 8.693 18.884 19.898 18.884v6.885h2.716v-6.885zm17.181-18.884c0 10.703-7.198 16.157-17.181 16.157V139.87c9.983 0 17.181 5.454 17.181 16.158zm-37.078 0c0-10.704 7.198-16.158 17.181-16.158v32.315c-9.983 0-17.181-5.454-17.181-16.157z" fill="#000"/></svg>